%
M48
M72
T01C0.0197
T02C0.0276
T03C0.0315
T04C0.0320
T05C0.0400
T06C0.0748
%
T01
X2681Y9181
X3681Y11181
X4306Y16056
X9931Y10056
X10681Y9181
X15181Y10181
T02
X7931Y17306
X7931Y16306
X13681Y6181
X13681Y5181
T03
X1731Y16081
X2101Y16701
X2791Y16701
X3101Y16081
X2431Y16081
T04
X7681Y18681
X8681Y18681
X9681Y17306
X9681Y16306
X10681Y16181
X11181Y18181
X11181Y19181
X15681Y16181
X17681Y18181
X19181Y18181
X19181Y13181
X17681Y13181
X16681Y9181
X15181Y9181
X15181Y8181
X15181Y7181
X16681Y4181
X16681Y3181
X16681Y2181
X15181Y2181
X11681Y2181
X11681Y1181
X11681Y3181
X11681Y4181
X11681Y5181
X11681Y6181
X11681Y7181
X11681Y8181
X11681Y9181
X11681Y10181
X11681Y11181
X11681Y12181
X11681Y13181
X11681Y14181
X8681Y14181
X8681Y13181
X8681Y12181
X8681Y11181
X8681Y10181
X8681Y9181
X8681Y8181
X8681Y7181
X8681Y6181
X8681Y5181
X8681Y4181
X8681Y3181
X8681Y2181
X8681Y1181
X5181Y3181
X4181Y3181
T05
X681Y1181
X681Y2181
X681Y3181
X681Y4181
X681Y6181
X681Y7181
X681Y8181
X681Y9181
X681Y11181
X681Y12181
X681Y13181
X681Y14181
X5806Y16556
X5806Y17556
X5806Y18556
X13681Y19181
X15681Y19181
X17181Y19181
X19181Y19181
X19181Y9181
X19181Y8181
X19181Y7181
X19181Y6181
X19181Y4181
X19181Y3181
X19181Y2181
X19181Y1181
X7181Y1181
X6181Y1181
X5181Y1181
X4181Y1181
X3181Y1181
X6181Y5181
X6181Y6181
X6181Y7181
T06
X994Y18181
X3868Y18181
M30
