G75*
G70*
%OFA0B0*%
%FSLAX24Y24*%
%IPPOS*%
%LPD*%
%AMOC8*
5,1,8,0,0,1.08239X$1,22.5*
%
%ADD10C,0.0000*%
%ADD11C,0.0030*%
%ADD12C,0.0120*%
%ADD13C,0.0040*%
%ADD14C,0.0060*%
%ADD15R,0.0240X0.0340*%
%ADD16C,0.0050*%
%ADD17C,0.0080*%
%ADD18C,0.0100*%
%ADD19C,0.0200*%
%ADD20R,0.0500X0.0750*%
%ADD21R,0.0300X0.0700*%
%ADD22R,0.0500X0.0300*%
%ADD23R,0.0340X0.0240*%
D10*
X000181Y000181D02*
X000181Y019866D01*
X019866Y019866D01*
X019866Y000181D01*
X000181Y000181D01*
D11*
X001446Y001120D02*
X001495Y001071D01*
X001592Y001071D01*
X001640Y001120D01*
X001640Y001168D01*
X001592Y001217D01*
X001543Y001217D01*
X001592Y001217D02*
X001640Y001265D01*
X001640Y001313D01*
X001592Y001362D01*
X001495Y001362D01*
X001446Y001313D01*
X001741Y001120D02*
X001789Y001120D01*
X001789Y001071D01*
X001741Y001071D01*
X001741Y001120D01*
X001888Y001120D02*
X001937Y001071D01*
X002034Y001071D01*
X002082Y001120D01*
X002082Y001168D01*
X002034Y001217D01*
X001985Y001217D01*
X002034Y001217D02*
X002082Y001265D01*
X002082Y001313D01*
X002034Y001362D01*
X001937Y001362D01*
X001888Y001313D01*
X002183Y001362D02*
X002183Y001168D01*
X002280Y001071D01*
X002376Y001168D01*
X002376Y001362D01*
X002946Y001821D02*
X002946Y002112D01*
X003092Y002112D01*
X003140Y002063D01*
X003140Y001967D01*
X003092Y001918D01*
X002946Y001918D01*
X003241Y001821D02*
X003338Y001821D01*
X003289Y001821D02*
X003289Y002112D01*
X003241Y002112D02*
X003338Y002112D01*
X003437Y002063D02*
X003437Y001870D01*
X003486Y001821D01*
X003583Y001821D01*
X003631Y001870D01*
X003732Y001918D02*
X003877Y002015D01*
X003978Y002015D02*
X004026Y002015D01*
X004026Y001821D01*
X003978Y001821D02*
X004074Y001821D01*
X004222Y001870D02*
X004222Y002063D01*
X004174Y002015D02*
X004271Y002015D01*
X004370Y002063D02*
X004419Y002112D01*
X004516Y002112D01*
X004564Y002063D01*
X004564Y002015D01*
X004516Y001967D01*
X004564Y001918D01*
X004564Y001870D01*
X004516Y001821D01*
X004419Y001821D01*
X004370Y001870D01*
X004271Y001821D02*
X004222Y001870D01*
X004467Y001967D02*
X004516Y001967D01*
X004026Y002112D02*
X004026Y002160D01*
X003877Y001821D02*
X003732Y001918D01*
X003732Y001821D02*
X003732Y002112D01*
X003631Y002063D02*
X003583Y002112D01*
X003486Y002112D01*
X003437Y002063D01*
X002229Y002120D02*
X002229Y002313D01*
X002181Y002362D01*
X002036Y002362D01*
X002036Y002071D01*
X002181Y002071D01*
X002229Y002120D01*
X001935Y002071D02*
X001935Y002362D01*
X001741Y002362D02*
X001741Y002071D01*
X001640Y002120D02*
X001640Y002217D01*
X001543Y002217D01*
X001446Y002313D02*
X001446Y002120D01*
X001495Y002071D01*
X001592Y002071D01*
X001640Y002120D01*
X001640Y002313D02*
X001592Y002362D01*
X001495Y002362D01*
X001446Y002313D01*
X001741Y002362D02*
X001935Y002071D01*
X001886Y003071D02*
X001789Y003071D01*
X001741Y003120D01*
X001741Y003217D02*
X001838Y003265D01*
X001886Y003265D01*
X001935Y003217D01*
X001935Y003120D01*
X001886Y003071D01*
X001741Y003217D02*
X001741Y003362D01*
X001935Y003362D01*
X001640Y003313D02*
X001640Y003265D01*
X001592Y003217D01*
X001446Y003217D01*
X001446Y003362D02*
X001592Y003362D01*
X001640Y003313D01*
X001592Y003217D02*
X001640Y003168D01*
X001640Y003120D01*
X001592Y003071D01*
X001446Y003071D01*
X001446Y003362D01*
X001446Y004071D02*
X001446Y004265D01*
X001543Y004362D01*
X001640Y004265D01*
X001640Y004071D01*
X001640Y004217D02*
X001446Y004217D01*
X001741Y004217D02*
X001935Y004217D01*
X001886Y004362D02*
X001741Y004217D01*
X001886Y004071D02*
X001886Y004362D01*
X001886Y006071D02*
X001886Y006362D01*
X001741Y006217D01*
X001935Y006217D01*
X001640Y006265D02*
X001592Y006217D01*
X001446Y006217D01*
X001446Y006362D02*
X001592Y006362D01*
X001640Y006313D01*
X001640Y006265D01*
X001592Y006217D02*
X001640Y006168D01*
X001640Y006120D01*
X001592Y006071D01*
X001446Y006071D01*
X001446Y006362D01*
X001446Y007071D02*
X001592Y007071D01*
X001640Y007120D01*
X001640Y007168D01*
X001592Y007217D01*
X001446Y007217D01*
X001446Y007362D02*
X001592Y007362D01*
X001640Y007313D01*
X001640Y007265D01*
X001592Y007217D01*
X001741Y007313D02*
X001789Y007362D01*
X001886Y007362D01*
X001935Y007313D01*
X001935Y007265D01*
X001886Y007217D01*
X001935Y007168D01*
X001935Y007120D01*
X001886Y007071D01*
X001789Y007071D01*
X001741Y007120D01*
X001838Y007217D02*
X001886Y007217D01*
X001446Y007071D02*
X001446Y007362D01*
X001446Y008071D02*
X001592Y008071D01*
X001640Y008120D01*
X001640Y008168D01*
X001592Y008217D01*
X001446Y008217D01*
X001446Y008362D02*
X001592Y008362D01*
X001640Y008313D01*
X001640Y008265D01*
X001592Y008217D01*
X001741Y008313D02*
X001789Y008362D01*
X001886Y008362D01*
X001935Y008313D01*
X001935Y008265D01*
X001741Y008071D01*
X001935Y008071D01*
X001446Y008071D02*
X001446Y008362D01*
X001446Y009071D02*
X001592Y009071D01*
X001640Y009120D01*
X001640Y009168D01*
X001592Y009217D01*
X001446Y009217D01*
X001446Y009362D02*
X001592Y009362D01*
X001640Y009313D01*
X001640Y009265D01*
X001592Y009217D01*
X001741Y009265D02*
X001838Y009362D01*
X001838Y009071D01*
X001741Y009071D02*
X001935Y009071D01*
X001446Y009071D02*
X001446Y009362D01*
X001446Y011071D02*
X001592Y011071D01*
X001640Y011120D01*
X001640Y011168D01*
X001592Y011217D01*
X001446Y011217D01*
X001446Y011362D02*
X001592Y011362D01*
X001640Y011313D01*
X001640Y011265D01*
X001592Y011217D01*
X001741Y011120D02*
X001741Y011313D01*
X001789Y011362D01*
X001886Y011362D01*
X001935Y011313D01*
X001741Y011120D01*
X001789Y011071D01*
X001886Y011071D01*
X001935Y011120D01*
X001935Y011313D01*
X001446Y011362D02*
X001446Y011071D01*
X001446Y012071D02*
X001446Y012265D01*
X001543Y012362D01*
X001640Y012265D01*
X001640Y012071D01*
X001741Y012071D02*
X001935Y012071D01*
X001838Y012071D02*
X001838Y012362D01*
X001741Y012265D01*
X001640Y012217D02*
X001446Y012217D01*
X001446Y013071D02*
X001446Y013265D01*
X001543Y013362D01*
X001640Y013265D01*
X001640Y013071D01*
X001741Y013120D02*
X001935Y013313D01*
X001935Y013120D01*
X001886Y013071D01*
X001789Y013071D01*
X001741Y013120D01*
X001741Y013313D01*
X001789Y013362D01*
X001886Y013362D01*
X001935Y013313D01*
X001640Y013217D02*
X001446Y013217D01*
X001446Y014071D02*
X001446Y014362D01*
X001543Y014265D01*
X001640Y014362D01*
X001640Y014071D01*
X001741Y014120D02*
X001789Y014071D01*
X001886Y014071D01*
X001935Y014120D01*
X002036Y014071D02*
X002036Y014362D01*
X001935Y014313D02*
X001886Y014362D01*
X001789Y014362D01*
X001741Y014313D01*
X001741Y014120D01*
X002036Y014071D02*
X002229Y014071D01*
X002330Y014071D02*
X002330Y014362D01*
X002475Y014362D01*
X002524Y014313D01*
X002524Y014217D01*
X002475Y014168D01*
X002330Y014168D01*
X002427Y014168D02*
X002524Y014071D01*
X004723Y015001D02*
X004917Y015001D01*
X005018Y015001D02*
X005018Y015292D01*
X005163Y015292D01*
X005211Y015243D01*
X005211Y015050D01*
X005163Y015001D01*
X005018Y015001D01*
X005312Y015001D02*
X005506Y015001D01*
X005409Y015001D02*
X005409Y015292D01*
X005312Y015195D01*
X005607Y015292D02*
X005801Y015292D01*
X005801Y015243D01*
X005607Y015050D01*
X005607Y015001D01*
X005902Y015001D02*
X005902Y015050D01*
X006095Y015243D01*
X006095Y015292D01*
X005902Y015292D01*
X004723Y015292D02*
X004723Y015001D01*
X007696Y015196D02*
X007890Y015196D01*
X007793Y015196D02*
X007793Y015487D01*
X007696Y015390D01*
X007991Y015438D02*
X007991Y015245D01*
X008185Y015438D01*
X008185Y015245D01*
X008136Y015196D01*
X008039Y015196D01*
X007991Y015245D01*
X007991Y015438D02*
X008039Y015487D01*
X008136Y015487D01*
X008185Y015438D01*
X008286Y015390D02*
X008286Y015245D01*
X008334Y015196D01*
X008479Y015196D01*
X008479Y015390D01*
X008580Y015342D02*
X008677Y015342D01*
X008580Y015487D02*
X008774Y015487D01*
X008580Y015487D02*
X008580Y015196D01*
X010376Y016745D02*
X010376Y016842D01*
X010425Y016890D01*
X010618Y016696D01*
X010666Y016745D01*
X010666Y016842D01*
X010618Y016890D01*
X010425Y016890D01*
X010376Y016745D02*
X010425Y016696D01*
X010618Y016696D01*
X010618Y016991D02*
X010618Y017039D01*
X010666Y017039D01*
X010666Y016991D01*
X010618Y016991D01*
X010666Y017138D02*
X010666Y017332D01*
X010666Y017235D02*
X010376Y017235D01*
X010473Y017138D01*
X010473Y017433D02*
X010618Y017433D01*
X010666Y017481D01*
X010666Y017626D01*
X010473Y017626D01*
X010521Y017728D02*
X010521Y017824D01*
X010376Y017728D02*
X010376Y017921D01*
X010376Y017728D02*
X010666Y017728D01*
X011946Y017821D02*
X011946Y018112D01*
X012092Y018112D01*
X012140Y018063D01*
X012140Y017967D01*
X012092Y017918D01*
X011946Y017918D01*
X012241Y017870D02*
X012289Y017821D01*
X012386Y017821D01*
X012435Y017870D01*
X012435Y017967D01*
X012386Y018015D01*
X012289Y018015D01*
X012241Y017967D01*
X012241Y017870D01*
X012536Y017870D02*
X012536Y018015D01*
X012536Y017870D02*
X012584Y017821D01*
X012632Y017870D01*
X012681Y017821D01*
X012729Y017870D01*
X012729Y018015D01*
X012830Y017967D02*
X012879Y018015D01*
X012975Y018015D01*
X013024Y017967D01*
X013024Y017918D01*
X012830Y017918D01*
X012830Y017870D02*
X012830Y017967D01*
X012830Y017870D02*
X012879Y017821D01*
X012975Y017821D01*
X013125Y017821D02*
X013125Y018015D01*
X013125Y017918D02*
X013222Y018015D01*
X013270Y018015D01*
X014696Y018196D02*
X014696Y018487D01*
X014842Y018487D01*
X014890Y018438D01*
X014890Y018342D01*
X014842Y018293D01*
X014696Y018293D01*
X014793Y018293D02*
X014890Y018196D01*
X012595Y016243D02*
X012595Y016050D01*
X012547Y016001D01*
X012450Y016001D01*
X012402Y016050D01*
X012595Y016243D01*
X012547Y016292D01*
X012450Y016292D01*
X012402Y016243D01*
X012402Y016050D01*
X012301Y016050D02*
X012252Y016001D01*
X012155Y016001D01*
X012107Y016050D01*
X012006Y016050D02*
X011958Y016001D01*
X011861Y016001D01*
X011812Y016050D01*
X011909Y016147D02*
X011958Y016147D01*
X012006Y016098D01*
X012006Y016050D01*
X011958Y016147D02*
X012006Y016195D01*
X012006Y016243D01*
X011958Y016292D01*
X011861Y016292D01*
X011812Y016243D01*
X012107Y016243D02*
X012155Y016292D01*
X012252Y016292D01*
X012301Y016243D01*
X012301Y016195D01*
X012252Y016147D01*
X012301Y016098D01*
X012301Y016050D01*
X012252Y016147D02*
X012204Y016147D01*
X008824Y019342D02*
X008728Y019342D01*
X008626Y019390D02*
X008626Y019196D01*
X008481Y019196D01*
X008433Y019245D01*
X008433Y019390D01*
X008332Y019196D02*
X008138Y019196D01*
X008235Y019196D02*
X008235Y019487D01*
X008138Y019390D01*
X008039Y019245D02*
X008039Y019196D01*
X007991Y019196D01*
X007991Y019245D01*
X008039Y019245D01*
X007890Y019245D02*
X007890Y019438D01*
X007696Y019245D01*
X007745Y019196D01*
X007842Y019196D01*
X007890Y019245D01*
X007890Y019438D02*
X007842Y019487D01*
X007745Y019487D01*
X007696Y019438D01*
X007696Y019245D01*
X008728Y019196D02*
X008728Y019487D01*
X008921Y019487D01*
X017501Y016661D02*
X017791Y016661D01*
X017695Y016661D02*
X017598Y016806D01*
X017695Y016661D02*
X017791Y016806D01*
X017743Y016560D02*
X017550Y016560D01*
X017743Y016366D01*
X017791Y016414D01*
X017791Y016511D01*
X017743Y016560D01*
X017550Y016560D02*
X017501Y016511D01*
X017501Y016414D01*
X017550Y016366D01*
X017743Y016366D01*
X017791Y016265D02*
X017791Y016071D01*
X017791Y016168D02*
X017501Y016168D01*
X017598Y016071D01*
X019001Y016168D02*
X019291Y016168D01*
X019291Y016071D02*
X019291Y016265D01*
X019243Y016366D02*
X019050Y016560D01*
X019243Y016560D01*
X019291Y016511D01*
X019291Y016414D01*
X019243Y016366D01*
X019050Y016366D01*
X019001Y016414D01*
X019001Y016511D01*
X019050Y016560D01*
X019001Y016661D02*
X019291Y016661D01*
X019195Y016661D02*
X019098Y016806D01*
X019195Y016661D02*
X019291Y016806D01*
X019001Y016168D02*
X019098Y016071D01*
X018342Y018196D02*
X018390Y018245D01*
X018390Y018487D01*
X018196Y018487D02*
X018196Y018245D01*
X018245Y018196D01*
X018342Y018196D01*
X018411Y009237D02*
X018411Y009092D01*
X018507Y009140D01*
X018556Y009140D01*
X018604Y009092D01*
X018604Y008995D01*
X018556Y008946D01*
X018459Y008946D01*
X018411Y008995D01*
X018310Y008946D02*
X018116Y008946D01*
X018213Y008946D02*
X018213Y009237D01*
X018116Y009140D01*
X018015Y009140D02*
X017967Y009092D01*
X017821Y009092D01*
X017821Y009237D02*
X017821Y008946D01*
X017967Y008946D01*
X018015Y008995D01*
X018015Y009043D01*
X017967Y009092D01*
X018015Y009140D02*
X018015Y009188D01*
X017967Y009237D01*
X017821Y009237D01*
X018411Y009237D02*
X018604Y009237D01*
X018556Y008362D02*
X018411Y008217D01*
X018604Y008217D01*
X018556Y008362D02*
X018556Y008071D01*
X018310Y008071D02*
X018116Y008071D01*
X018213Y008071D02*
X018213Y008362D01*
X018116Y008265D01*
X018015Y008265D02*
X017967Y008217D01*
X017821Y008217D01*
X017821Y008362D02*
X017967Y008362D01*
X018015Y008313D01*
X018015Y008265D01*
X017967Y008217D02*
X018015Y008168D01*
X018015Y008120D01*
X017967Y008071D01*
X017821Y008071D01*
X017821Y008362D01*
X017821Y007362D02*
X017967Y007362D01*
X018015Y007313D01*
X018015Y007265D01*
X017967Y007217D01*
X017821Y007217D01*
X017821Y007362D02*
X017821Y007071D01*
X017967Y007071D01*
X018015Y007120D01*
X018015Y007168D01*
X017967Y007217D01*
X018116Y007265D02*
X018213Y007362D01*
X018213Y007071D01*
X018116Y007071D02*
X018310Y007071D01*
X018411Y007120D02*
X018459Y007071D01*
X018556Y007071D01*
X018604Y007120D01*
X018604Y007168D01*
X018556Y007217D01*
X018507Y007217D01*
X018556Y007217D02*
X018604Y007265D01*
X018604Y007313D01*
X018556Y007362D01*
X018459Y007362D01*
X018411Y007313D01*
X018261Y006362D02*
X018164Y006362D01*
X018116Y006313D01*
X018116Y006265D01*
X018164Y006217D01*
X018310Y006217D01*
X018310Y006313D02*
X018261Y006362D01*
X018310Y006313D02*
X018310Y006120D01*
X018261Y006071D01*
X018164Y006071D01*
X018116Y006120D01*
X018015Y006120D02*
X017967Y006071D01*
X017821Y006071D01*
X017821Y006362D01*
X017967Y006362D01*
X018015Y006313D01*
X018015Y006265D01*
X017967Y006217D01*
X017821Y006217D01*
X017967Y006217D02*
X018015Y006168D01*
X018015Y006120D01*
X016791Y007245D02*
X016743Y007196D01*
X016791Y007245D02*
X016791Y007342D01*
X016743Y007390D01*
X016695Y007390D01*
X016646Y007342D01*
X016646Y007293D01*
X016646Y007342D02*
X016598Y007390D01*
X016550Y007390D01*
X016501Y007342D01*
X016501Y007245D01*
X016550Y007196D01*
X016550Y007491D02*
X016501Y007539D01*
X016501Y007636D01*
X016550Y007685D01*
X016598Y007685D01*
X016646Y007636D01*
X016695Y007685D01*
X016743Y007685D01*
X016791Y007636D01*
X016791Y007539D01*
X016743Y007491D01*
X016646Y007588D02*
X016646Y007636D01*
X016743Y007786D02*
X016550Y007786D01*
X016501Y007834D01*
X016501Y007931D01*
X016550Y007979D01*
X016743Y007786D01*
X016791Y007834D01*
X016791Y007931D01*
X016743Y007979D01*
X016550Y007979D01*
X015243Y006104D02*
X015050Y006104D01*
X015243Y005911D01*
X015291Y005959D01*
X015291Y006056D01*
X015243Y006104D01*
X015243Y005911D02*
X015050Y005911D01*
X015001Y005959D01*
X015001Y006056D01*
X015050Y006104D01*
X015050Y005810D02*
X015098Y005810D01*
X015146Y005761D01*
X015195Y005810D01*
X015243Y005810D01*
X015291Y005761D01*
X015291Y005664D01*
X015243Y005616D01*
X015243Y005515D02*
X015291Y005467D01*
X015291Y005370D01*
X015243Y005321D01*
X015146Y005418D02*
X015146Y005467D01*
X015195Y005515D01*
X015243Y005515D01*
X015146Y005467D02*
X015098Y005515D01*
X015050Y005515D01*
X015001Y005467D01*
X015001Y005370D01*
X015050Y005321D01*
X015050Y005616D02*
X015001Y005664D01*
X015001Y005761D01*
X015050Y005810D01*
X015146Y005761D02*
X015146Y005713D01*
X014080Y006821D02*
X014080Y007112D01*
X014274Y007112D01*
X014177Y006967D02*
X014080Y006967D01*
X013979Y007015D02*
X013979Y006821D01*
X013834Y006821D01*
X013786Y006870D01*
X013786Y007015D01*
X013685Y007063D02*
X013685Y006870D01*
X013636Y006821D01*
X013539Y006821D01*
X013491Y006870D01*
X013685Y007063D01*
X013636Y007112D01*
X013539Y007112D01*
X013491Y007063D01*
X013491Y006870D01*
X013390Y006821D02*
X013196Y006821D01*
X013293Y006821D02*
X013293Y007112D01*
X013196Y007015D01*
X013265Y008446D02*
X013071Y008446D01*
X013071Y008737D01*
X013366Y008737D02*
X013366Y008446D01*
X013560Y008446D01*
X013661Y008446D02*
X013661Y008737D01*
X013806Y008737D01*
X013854Y008688D01*
X013854Y008495D01*
X013806Y008446D01*
X013661Y008446D01*
X013463Y008592D02*
X013366Y008592D01*
X013366Y008737D02*
X013560Y008737D01*
X013955Y008640D02*
X014052Y008737D01*
X014052Y008446D01*
X013955Y008446D02*
X014149Y008446D01*
X017821Y004362D02*
X017967Y004362D01*
X018015Y004313D01*
X018015Y004265D01*
X017967Y004217D01*
X017821Y004217D01*
X017821Y004362D02*
X017821Y004071D01*
X017967Y004071D01*
X018015Y004120D01*
X018015Y004168D01*
X017967Y004217D01*
X018116Y004265D02*
X018116Y004313D01*
X018164Y004362D01*
X018261Y004362D01*
X018310Y004313D01*
X018310Y004265D01*
X018261Y004217D01*
X018164Y004217D01*
X018116Y004265D01*
X018164Y004217D02*
X018116Y004168D01*
X018116Y004120D01*
X018164Y004071D01*
X018261Y004071D01*
X018310Y004120D01*
X018310Y004168D01*
X018261Y004217D01*
X018310Y003362D02*
X018116Y003362D01*
X018015Y003313D02*
X018015Y003265D01*
X017967Y003217D01*
X017821Y003217D01*
X017821Y003362D02*
X017967Y003362D01*
X018015Y003313D01*
X017967Y003217D02*
X018015Y003168D01*
X018015Y003120D01*
X017967Y003071D01*
X017821Y003071D01*
X017821Y003362D01*
X018116Y003120D02*
X018116Y003071D01*
X018116Y003120D02*
X018310Y003313D01*
X018310Y003362D01*
X018310Y002362D02*
X018310Y002071D01*
X018116Y002362D01*
X018116Y002071D01*
X018015Y002120D02*
X018015Y002217D01*
X017918Y002217D01*
X017821Y002313D02*
X017821Y002120D01*
X017870Y002071D01*
X017967Y002071D01*
X018015Y002120D01*
X018015Y002313D02*
X017967Y002362D01*
X017870Y002362D01*
X017821Y002313D01*
X018411Y002362D02*
X018411Y002071D01*
X018556Y002071D01*
X018604Y002120D01*
X018604Y002313D01*
X018556Y002362D01*
X018411Y002362D01*
X018310Y001362D02*
X018310Y001168D01*
X018213Y001071D01*
X018116Y001168D01*
X018116Y001362D01*
X018015Y001362D02*
X017821Y001362D01*
X017821Y001217D01*
X017918Y001265D01*
X017967Y001265D01*
X018015Y001217D01*
X018015Y001120D01*
X017967Y001071D01*
X017870Y001071D01*
X017821Y001120D01*
X017274Y001196D02*
X017080Y001196D01*
X017274Y001390D01*
X017274Y001438D01*
X017225Y001487D01*
X017129Y001487D01*
X017080Y001438D01*
X016979Y001438D02*
X016931Y001487D01*
X016786Y001487D01*
X016786Y001196D01*
X016931Y001196D01*
X016979Y001245D01*
X016979Y001438D01*
X016685Y001487D02*
X016491Y001487D01*
X016491Y001196D01*
X016685Y001196D01*
X016588Y001342D02*
X016491Y001342D01*
X016390Y001196D02*
X016196Y001196D01*
X016196Y001487D01*
X005421Y004112D02*
X005228Y004112D01*
X005228Y003821D01*
X005126Y003821D02*
X005126Y004015D01*
X005228Y003967D02*
X005324Y003967D01*
X005126Y003821D02*
X004981Y003821D01*
X004933Y003870D01*
X004933Y004015D01*
X004832Y003821D02*
X004638Y003821D01*
X004735Y003821D02*
X004735Y004112D01*
X004638Y004015D01*
X004539Y003870D02*
X004539Y003821D01*
X004491Y003821D01*
X004491Y003870D01*
X004539Y003870D01*
X004390Y003870D02*
X004390Y004063D01*
X004196Y003870D01*
X004245Y003821D01*
X004342Y003821D01*
X004390Y003870D01*
X004390Y004063D02*
X004342Y004112D01*
X004245Y004112D01*
X004196Y004063D01*
X004196Y003870D01*
X005175Y005571D02*
X005223Y005571D01*
X005271Y005620D01*
X005271Y005717D01*
X005320Y005765D01*
X005368Y005765D01*
X005416Y005717D01*
X005416Y005620D01*
X005368Y005571D01*
X005320Y005571D01*
X005271Y005620D01*
X005271Y005717D02*
X005223Y005765D01*
X005175Y005765D01*
X005126Y005717D01*
X005126Y005620D01*
X005175Y005571D01*
X005126Y005866D02*
X005223Y005963D01*
X005126Y006060D01*
X005416Y006060D01*
X005416Y006161D02*
X005126Y006161D01*
X005271Y006161D02*
X005271Y006354D01*
X005223Y006455D02*
X005223Y006649D01*
X005416Y006455D01*
X005416Y006649D01*
X005416Y006354D02*
X005126Y006354D01*
X005126Y005866D02*
X005416Y005866D01*
D12*
X005681Y005181D02*
X005681Y007181D01*
X005683Y007225D01*
X005689Y007268D01*
X005698Y007310D01*
X005711Y007352D01*
X005728Y007392D01*
X005748Y007431D01*
X005771Y007468D01*
X005798Y007502D01*
X005827Y007535D01*
X005860Y007564D01*
X005894Y007591D01*
X005931Y007614D01*
X005970Y007634D01*
X006010Y007651D01*
X006052Y007664D01*
X006094Y007673D01*
X006137Y007679D01*
X006181Y007681D01*
X006225Y007679D01*
X006268Y007673D01*
X006310Y007664D01*
X006352Y007651D01*
X006392Y007634D01*
X006431Y007614D01*
X006468Y007591D01*
X006502Y007564D01*
X006535Y007535D01*
X006564Y007502D01*
X006591Y007468D01*
X006614Y007431D01*
X006634Y007392D01*
X006651Y007352D01*
X006664Y007310D01*
X006673Y007268D01*
X006679Y007225D01*
X006681Y007181D01*
X006681Y005181D01*
X006679Y005137D01*
X006673Y005094D01*
X006664Y005052D01*
X006651Y005010D01*
X006634Y004970D01*
X006614Y004931D01*
X006591Y004894D01*
X006564Y004860D01*
X006535Y004827D01*
X006502Y004798D01*
X006468Y004771D01*
X006431Y004748D01*
X006392Y004728D01*
X006352Y004711D01*
X006310Y004698D01*
X006268Y004689D01*
X006225Y004683D01*
X006181Y004681D01*
X006137Y004683D01*
X006094Y004689D01*
X006052Y004698D01*
X006010Y004711D01*
X005970Y004728D01*
X005931Y004748D01*
X005894Y004771D01*
X005860Y004798D01*
X005827Y004827D01*
X005798Y004860D01*
X005771Y004894D01*
X005748Y004931D01*
X005728Y004970D01*
X005711Y005010D01*
X005698Y005052D01*
X005689Y005094D01*
X005683Y005137D01*
X005681Y005181D01*
D13*
X004585Y008201D02*
X004278Y008201D01*
X004201Y008278D01*
X004201Y008432D01*
X004278Y008508D01*
X004201Y008662D02*
X004661Y008662D01*
X004585Y008508D02*
X004661Y008432D01*
X004661Y008278D01*
X004585Y008201D01*
X004431Y008662D02*
X004355Y008738D01*
X004355Y008892D01*
X004431Y008969D01*
X004661Y008969D01*
X004661Y009122D02*
X004355Y009122D01*
X004508Y009122D02*
X004355Y009276D01*
X004355Y009352D01*
X004355Y009506D02*
X004355Y009582D01*
X004661Y009582D01*
X004661Y009506D02*
X004661Y009659D01*
X004661Y009813D02*
X004661Y010043D01*
X004585Y010120D01*
X004508Y010043D01*
X004508Y009889D01*
X004431Y009813D01*
X004355Y009889D01*
X004355Y010120D01*
X004201Y009582D02*
X004124Y009582D01*
X003661Y009506D02*
X003585Y009429D01*
X003661Y009506D02*
X003661Y009659D01*
X003585Y009736D01*
X003508Y009736D01*
X003431Y009659D01*
X003431Y009582D01*
X003431Y009659D02*
X003355Y009736D01*
X003278Y009736D01*
X003201Y009659D01*
X003201Y009506D01*
X003278Y009429D01*
X003278Y009276D02*
X003201Y009199D01*
X003201Y009045D01*
X003278Y008969D01*
X003585Y008969D01*
X003661Y009045D01*
X003661Y009199D01*
X003585Y009276D01*
X003661Y008815D02*
X003661Y008662D01*
X003661Y008738D02*
X003201Y008738D01*
X003201Y008662D02*
X003201Y008815D01*
X003278Y008508D02*
X003431Y008508D01*
X003508Y008432D01*
X003508Y008201D01*
X003661Y008201D02*
X003201Y008201D01*
X003201Y008432D01*
X003278Y008508D01*
X003278Y009889D02*
X003201Y009966D01*
X003201Y010120D01*
X003278Y010196D01*
X003355Y010196D01*
X003661Y009889D01*
X003661Y010196D01*
X003661Y010350D02*
X003201Y010350D01*
X003355Y010503D01*
X003201Y010657D01*
X003661Y010657D01*
X003661Y010810D02*
X003201Y011117D01*
X003278Y011270D02*
X003201Y011347D01*
X003201Y011501D01*
X003278Y011577D01*
X003355Y011577D01*
X003661Y011270D01*
X003661Y011577D01*
X003585Y011731D02*
X003661Y011807D01*
X003661Y011961D01*
X003585Y012038D01*
X003431Y012038D01*
X003355Y011961D01*
X003355Y011884D01*
X003431Y011731D01*
X003201Y011731D01*
X003201Y012038D01*
X003278Y012191D02*
X003201Y012268D01*
X003201Y012421D01*
X003278Y012498D01*
X003585Y012191D01*
X003661Y012268D01*
X003661Y012421D01*
X003585Y012498D01*
X003278Y012498D01*
X003278Y012191D02*
X003585Y012191D01*
X004124Y011654D02*
X004201Y011654D01*
X004355Y011654D02*
X004661Y011654D01*
X004661Y011577D02*
X004661Y011731D01*
X004661Y011884D02*
X004355Y011884D01*
X004355Y011961D01*
X004431Y012038D01*
X004355Y012114D01*
X004431Y012191D01*
X004661Y012191D01*
X004661Y012038D02*
X004431Y012038D01*
X004431Y012345D02*
X004355Y012421D01*
X004355Y012575D01*
X004431Y012651D01*
X004508Y012651D01*
X004508Y012345D01*
X004585Y012345D02*
X004431Y012345D01*
X004585Y012345D02*
X004661Y012421D01*
X004661Y012575D01*
X004661Y012805D02*
X004661Y013035D01*
X004585Y013112D01*
X004508Y013035D01*
X004508Y012882D01*
X004431Y012805D01*
X004355Y012882D01*
X004355Y013112D01*
X004355Y013265D02*
X004355Y013419D01*
X004278Y013342D02*
X004585Y013342D01*
X004661Y013419D01*
X004585Y013572D02*
X004508Y013649D01*
X004508Y013879D01*
X004431Y013879D02*
X004661Y013879D01*
X004661Y013649D01*
X004585Y013572D01*
X004355Y013649D02*
X004355Y013802D01*
X004431Y013879D01*
X004431Y014033D02*
X004355Y014109D01*
X004355Y014339D01*
X004201Y014339D02*
X004661Y014339D01*
X004661Y014109D01*
X004585Y014033D01*
X004431Y014033D01*
X004355Y011654D02*
X004355Y011577D01*
X004355Y011424D02*
X004355Y011347D01*
X004508Y011194D01*
X004661Y011194D02*
X004355Y011194D01*
X004431Y011040D02*
X004431Y010887D01*
X004431Y011040D02*
X004585Y011040D01*
X004661Y010964D01*
X004661Y010810D01*
X004585Y010733D01*
X004278Y010733D01*
X004201Y010810D01*
X004201Y010964D01*
X004278Y011040D01*
X003661Y011117D02*
X003201Y010810D01*
X009701Y010765D02*
X010161Y010765D01*
X010161Y010612D02*
X010161Y010919D01*
X010161Y011072D02*
X009855Y011379D01*
X009778Y011379D01*
X009701Y011302D01*
X009701Y011149D01*
X009778Y011072D01*
X009701Y010765D02*
X009855Y010612D01*
X009701Y010458D02*
X009701Y010151D01*
X010161Y010151D01*
X010085Y009998D02*
X010161Y009921D01*
X010161Y009768D01*
X010085Y009691D01*
X009778Y009998D01*
X010085Y009998D01*
X009931Y010151D02*
X009931Y010305D01*
X009778Y009998D02*
X009701Y009921D01*
X009701Y009768D01*
X009778Y009691D01*
X010085Y009691D01*
X010085Y009538D02*
X009931Y009538D01*
X009855Y009461D01*
X009855Y009384D01*
X009931Y009231D01*
X009701Y009231D01*
X009701Y009538D01*
X010085Y009538D02*
X010161Y009461D01*
X010161Y009307D01*
X010085Y009231D01*
X010161Y009077D02*
X010161Y008770D01*
X009855Y009077D01*
X009778Y009077D01*
X009701Y009001D01*
X009701Y008847D01*
X009778Y008770D01*
X009701Y008617D02*
X010161Y008310D01*
X010161Y008157D02*
X009701Y008157D01*
X009855Y008003D01*
X009701Y007850D01*
X010161Y007850D01*
X010161Y007696D02*
X010161Y007389D01*
X009855Y007696D01*
X009778Y007696D01*
X009701Y007620D01*
X009701Y007466D01*
X009778Y007389D01*
X009778Y007236D02*
X009855Y007236D01*
X009931Y007159D01*
X010008Y007236D01*
X010085Y007236D01*
X010161Y007159D01*
X010161Y007006D01*
X010085Y006929D01*
X010085Y006776D02*
X010161Y006699D01*
X010161Y006545D01*
X010085Y006469D01*
X009778Y006469D01*
X009701Y006545D01*
X009701Y006699D01*
X009778Y006776D01*
X009778Y006929D02*
X009701Y007006D01*
X009701Y007159D01*
X009778Y007236D01*
X009931Y007159D02*
X009931Y007082D01*
X009701Y006315D02*
X009701Y006162D01*
X009701Y006238D02*
X010161Y006238D01*
X010161Y006162D02*
X010161Y006315D01*
X009931Y006008D02*
X010008Y005932D01*
X010008Y005701D01*
X010161Y005701D02*
X009701Y005701D01*
X009701Y005932D01*
X009778Y006008D01*
X009931Y006008D01*
X009701Y008310D02*
X010161Y008617D01*
X010161Y011072D02*
X010161Y011379D01*
X010085Y011533D02*
X010008Y011533D01*
X009931Y011609D01*
X009931Y011763D01*
X010008Y011839D01*
X010085Y011839D01*
X010161Y011763D01*
X010161Y011609D01*
X010085Y011533D01*
X009931Y011609D02*
X009855Y011533D01*
X009778Y011533D01*
X009701Y011609D01*
X009701Y011763D01*
X009778Y011839D01*
X009855Y011839D01*
X009931Y011763D01*
X009931Y011993D02*
X009931Y012223D01*
X010008Y012300D01*
X010085Y012300D01*
X010161Y012223D01*
X010161Y011993D01*
X009701Y011993D01*
X009701Y012223D01*
X009778Y012300D01*
X009855Y012300D01*
X009931Y012223D01*
X009701Y012453D02*
X009701Y012683D01*
X009778Y012760D01*
X010085Y012760D01*
X010161Y012683D01*
X010161Y012453D01*
X009701Y012453D01*
X009701Y012914D02*
X009701Y013067D01*
X009701Y012990D02*
X010161Y012990D01*
X010161Y012914D02*
X010161Y013067D01*
X010161Y013221D02*
X009701Y013221D01*
X009701Y013451D01*
X009778Y013527D01*
X009931Y013527D01*
X010008Y013451D01*
X010008Y013221D01*
X011567Y000912D02*
X011720Y000912D01*
X011643Y000912D02*
X011643Y000528D01*
X011567Y000451D01*
X011490Y000451D01*
X011413Y000528D01*
X011873Y000528D02*
X011950Y000451D01*
X012104Y000451D01*
X012180Y000528D01*
X012180Y000682D01*
X012104Y000758D01*
X011950Y000758D01*
X011873Y000682D01*
X011873Y000528D01*
X012334Y000451D02*
X012334Y000912D01*
X012411Y000758D02*
X012334Y000682D01*
X012411Y000758D02*
X012564Y000758D01*
X012641Y000682D01*
X012641Y000451D01*
X012794Y000451D02*
X012794Y000758D01*
X013024Y000758D01*
X013101Y000682D01*
X013101Y000451D01*
X013715Y000451D02*
X014022Y000451D01*
X014175Y000451D02*
X014175Y000528D01*
X014252Y000528D01*
X014252Y000451D01*
X014175Y000451D01*
X014175Y000682D02*
X014175Y000758D01*
X014252Y000758D01*
X014252Y000682D01*
X014175Y000682D01*
X013868Y000912D02*
X013868Y000451D01*
X013715Y000758D02*
X013868Y000912D01*
X014405Y000758D02*
X014559Y000912D01*
X014559Y000451D01*
X014712Y000451D02*
X014405Y000451D01*
X014866Y000451D02*
X015173Y000758D01*
X015173Y000835D01*
X015096Y000912D01*
X014942Y000912D01*
X014866Y000835D01*
X014866Y000451D02*
X015173Y000451D01*
D14*
X016081Y002681D02*
X016083Y002726D01*
X016088Y002772D01*
X016096Y002816D01*
X016108Y002860D01*
X016124Y002903D01*
X016142Y002945D01*
X016164Y002985D01*
X016188Y003023D01*
X016215Y003059D01*
X016245Y003094D01*
X016278Y003125D01*
X016313Y003155D01*
X015781Y003081D02*
X015781Y003331D01*
X015731Y003381D01*
X015731Y005981D01*
X015781Y006031D01*
X015781Y006281D01*
X015779Y006298D01*
X015775Y006315D01*
X015768Y006331D01*
X015758Y006345D01*
X015745Y006358D01*
X015731Y006368D01*
X015715Y006375D01*
X015698Y006379D01*
X015681Y006381D01*
X014681Y006381D01*
X014664Y006379D01*
X014647Y006375D01*
X014631Y006368D01*
X014617Y006358D01*
X014604Y006345D01*
X014594Y006331D01*
X014587Y006315D01*
X014583Y006298D01*
X014581Y006281D01*
X014581Y006031D01*
X014631Y005981D01*
X014631Y003381D01*
X014581Y003331D01*
X014581Y003081D01*
X014583Y003064D01*
X014587Y003047D01*
X014594Y003031D01*
X014604Y003017D01*
X014617Y003004D01*
X014631Y002994D01*
X014647Y002987D01*
X014664Y002983D01*
X014681Y002981D01*
X015681Y002981D01*
X015698Y002983D01*
X015715Y002987D01*
X015731Y002994D01*
X015745Y003004D01*
X015758Y003017D01*
X015768Y003031D01*
X015775Y003047D01*
X015779Y003064D01*
X015781Y003081D01*
X016081Y002681D02*
X016083Y002636D01*
X016088Y002590D01*
X016096Y002546D01*
X016108Y002502D01*
X016124Y002459D01*
X016142Y002417D01*
X016164Y002377D01*
X016188Y002339D01*
X016215Y002303D01*
X016245Y002268D01*
X016278Y002237D01*
X016313Y002207D01*
X017281Y002681D02*
X017279Y002727D01*
X017274Y002773D01*
X017265Y002819D01*
X017253Y002864D01*
X017237Y002907D01*
X017218Y002949D01*
X017195Y002990D01*
X017170Y003029D01*
X017142Y003065D01*
X017111Y003100D01*
X017077Y003132D01*
X017041Y003161D01*
X017281Y002681D02*
X017279Y002634D01*
X017273Y002586D01*
X017264Y002540D01*
X017251Y002494D01*
X017235Y002450D01*
X017215Y002406D01*
X017191Y002365D01*
X017165Y002326D01*
X017135Y002289D01*
X017102Y002254D01*
X017067Y002222D01*
X017030Y002193D01*
X017181Y004981D02*
X016181Y004981D01*
X016164Y004983D01*
X016147Y004987D01*
X016131Y004994D01*
X016117Y005004D01*
X016104Y005017D01*
X016094Y005031D01*
X016087Y005047D01*
X016083Y005064D01*
X016081Y005081D01*
X016081Y005331D01*
X016131Y005381D01*
X016131Y007981D01*
X016081Y008031D01*
X016081Y008281D01*
X016083Y008298D01*
X016087Y008315D01*
X016094Y008331D01*
X016104Y008345D01*
X016117Y008358D01*
X016131Y008368D01*
X016147Y008375D01*
X016164Y008379D01*
X016181Y008381D01*
X017181Y008381D01*
X017198Y008379D01*
X017215Y008375D01*
X017231Y008368D01*
X017245Y008358D01*
X017258Y008345D01*
X017268Y008331D01*
X017275Y008315D01*
X017279Y008298D01*
X017281Y008281D01*
X017281Y008031D01*
X017231Y007981D01*
X017231Y005381D01*
X017281Y005331D01*
X017281Y005081D01*
X017279Y005064D01*
X017275Y005047D01*
X017268Y005031D01*
X017258Y005017D01*
X017245Y005004D01*
X017231Y004994D01*
X017215Y004987D01*
X017198Y004983D01*
X017181Y004981D01*
X015549Y008207D02*
X015584Y008237D01*
X015617Y008268D01*
X015647Y008303D01*
X015674Y008339D01*
X015698Y008377D01*
X015720Y008417D01*
X015738Y008459D01*
X015754Y008502D01*
X015766Y008546D01*
X015774Y008590D01*
X015779Y008636D01*
X015781Y008681D01*
X015779Y008726D01*
X015774Y008772D01*
X015766Y008816D01*
X015754Y008860D01*
X015738Y008903D01*
X015720Y008945D01*
X015698Y008985D01*
X015674Y009023D01*
X015647Y009059D01*
X015617Y009094D01*
X015584Y009125D01*
X015549Y009155D01*
X014581Y008681D02*
X014583Y008635D01*
X014588Y008589D01*
X014597Y008543D01*
X014609Y008498D01*
X014625Y008455D01*
X014644Y008413D01*
X014667Y008372D01*
X014692Y008333D01*
X014720Y008297D01*
X014751Y008262D01*
X014785Y008230D01*
X014821Y008201D01*
X014581Y008681D02*
X014583Y008728D01*
X014589Y008776D01*
X014598Y008822D01*
X014611Y008868D01*
X014627Y008912D01*
X014647Y008956D01*
X014671Y008997D01*
X014697Y009036D01*
X014727Y009073D01*
X014760Y009108D01*
X014795Y009140D01*
X014832Y009169D01*
X017181Y013981D02*
X018181Y013981D01*
X018198Y013983D01*
X018215Y013987D01*
X018231Y013994D01*
X018245Y014004D01*
X018258Y014017D01*
X018268Y014031D01*
X018275Y014047D01*
X018279Y014064D01*
X018281Y014081D01*
X018281Y014331D01*
X018231Y014381D01*
X018231Y016981D01*
X018281Y017031D01*
X018281Y017281D01*
X018279Y017298D01*
X018275Y017315D01*
X018268Y017331D01*
X018258Y017345D01*
X018245Y017358D01*
X018231Y017368D01*
X018215Y017375D01*
X018198Y017379D01*
X018181Y017381D01*
X017181Y017381D01*
X017164Y017379D01*
X017147Y017375D01*
X017131Y017368D01*
X017117Y017358D01*
X017104Y017345D01*
X017094Y017331D01*
X017087Y017315D01*
X017083Y017298D01*
X017081Y017281D01*
X017081Y017031D01*
X017131Y016981D01*
X017131Y014381D01*
X017081Y014331D01*
X017081Y014081D01*
X017083Y014064D01*
X017087Y014047D01*
X017094Y014031D01*
X017104Y014017D01*
X017117Y014004D01*
X017131Y013994D01*
X017147Y013987D01*
X017164Y013983D01*
X017181Y013981D01*
X018581Y014081D02*
X018581Y014331D01*
X018631Y014381D01*
X018631Y016981D01*
X018581Y017031D01*
X018581Y017281D01*
X018583Y017298D01*
X018587Y017315D01*
X018594Y017331D01*
X018604Y017345D01*
X018617Y017358D01*
X018631Y017368D01*
X018647Y017375D01*
X018664Y017379D01*
X018681Y017381D01*
X019681Y017381D01*
X019698Y017379D01*
X019715Y017375D01*
X019731Y017368D01*
X019745Y017358D01*
X019758Y017345D01*
X019768Y017331D01*
X019775Y017315D01*
X019779Y017298D01*
X019781Y017281D01*
X019781Y017031D01*
X019731Y016981D01*
X019731Y014381D01*
X019781Y014331D01*
X019781Y014081D01*
X019779Y014064D01*
X019775Y014047D01*
X019768Y014031D01*
X019758Y014017D01*
X019745Y014004D01*
X019731Y013994D01*
X019715Y013987D01*
X019698Y013983D01*
X019681Y013981D01*
X018681Y013981D01*
X018664Y013983D01*
X018647Y013987D01*
X018631Y013994D01*
X018617Y014004D01*
X018604Y014017D01*
X018594Y014031D01*
X018587Y014047D01*
X018583Y014064D01*
X018581Y014081D01*
X014881Y015681D02*
X014881Y016681D01*
X014879Y016698D01*
X014875Y016715D01*
X014868Y016731D01*
X014858Y016745D01*
X014845Y016758D01*
X014831Y016768D01*
X014815Y016775D01*
X014798Y016779D01*
X014781Y016781D01*
X014531Y016781D01*
X014481Y016731D01*
X011881Y016731D01*
X011831Y016781D01*
X011581Y016781D01*
X011564Y016779D01*
X011547Y016775D01*
X011531Y016768D01*
X011517Y016758D01*
X011504Y016745D01*
X011494Y016731D01*
X011487Y016715D01*
X011483Y016698D01*
X011481Y016681D01*
X011481Y015681D01*
X011483Y015664D01*
X011487Y015647D01*
X011494Y015631D01*
X011504Y015617D01*
X011517Y015604D01*
X011531Y015594D01*
X011547Y015587D01*
X011564Y015583D01*
X011581Y015581D01*
X011831Y015581D01*
X011881Y015631D01*
X014481Y015631D01*
X014531Y015581D01*
X014781Y015581D01*
X014798Y015583D01*
X014815Y015587D01*
X014831Y015594D01*
X014845Y015604D01*
X014858Y015617D01*
X014868Y015631D01*
X014875Y015647D01*
X014879Y015664D01*
X014881Y015681D01*
X011331Y014681D02*
X010581Y014681D01*
X010579Y014642D01*
X010573Y014603D01*
X010564Y014565D01*
X010551Y014528D01*
X010534Y014492D01*
X010514Y014459D01*
X010490Y014427D01*
X010464Y014398D01*
X010435Y014372D01*
X010403Y014348D01*
X010370Y014328D01*
X010334Y014311D01*
X010297Y014298D01*
X010259Y014289D01*
X010220Y014283D01*
X010181Y014281D01*
X010142Y014283D01*
X010103Y014289D01*
X010065Y014298D01*
X010028Y014311D01*
X009992Y014328D01*
X009959Y014348D01*
X009927Y014372D01*
X009898Y014398D01*
X009872Y014427D01*
X009848Y014459D01*
X009828Y014492D01*
X009811Y014528D01*
X009798Y014565D01*
X009789Y014603D01*
X009783Y014642D01*
X009781Y014681D01*
X009031Y014681D01*
X009031Y000681D01*
X011331Y000681D01*
X011331Y014681D01*
X010081Y015856D02*
X009281Y015856D01*
X009264Y015858D01*
X009247Y015862D01*
X009231Y015869D01*
X009217Y015879D01*
X009204Y015892D01*
X009194Y015906D01*
X009187Y015922D01*
X009183Y015939D01*
X009181Y015956D01*
X009181Y017656D01*
X009183Y017673D01*
X009187Y017690D01*
X009194Y017706D01*
X009204Y017720D01*
X009217Y017733D01*
X009231Y017743D01*
X009247Y017750D01*
X009264Y017754D01*
X009281Y017756D01*
X010081Y017756D01*
X010098Y017754D01*
X010115Y017750D01*
X010131Y017743D01*
X010145Y017733D01*
X010158Y017720D01*
X010168Y017706D01*
X010175Y017690D01*
X010179Y017673D01*
X010181Y017656D01*
X010181Y015956D01*
X010179Y015939D01*
X010175Y015922D01*
X010168Y015906D01*
X010158Y015892D01*
X010145Y015879D01*
X010131Y015869D01*
X010115Y015862D01*
X010098Y015858D01*
X010081Y015856D01*
X009681Y016656D02*
X009681Y016706D01*
X009681Y016906D02*
X009681Y016956D01*
X009031Y018181D02*
X007331Y018181D01*
X007314Y018183D01*
X007297Y018187D01*
X007281Y018194D01*
X007267Y018204D01*
X007254Y018217D01*
X007244Y018231D01*
X007237Y018247D01*
X007233Y018264D01*
X007231Y018281D01*
X007231Y019081D01*
X007233Y019098D01*
X007237Y019115D01*
X007244Y019131D01*
X007254Y019145D01*
X007267Y019158D01*
X007281Y019168D01*
X007297Y019175D01*
X007314Y019179D01*
X007331Y019181D01*
X009031Y019181D01*
X009048Y019179D01*
X009065Y019175D01*
X009081Y019168D01*
X009095Y019158D01*
X009108Y019145D01*
X009118Y019131D01*
X009125Y019115D01*
X009129Y019098D01*
X009131Y019081D01*
X009131Y018281D01*
X009129Y018264D01*
X009125Y018247D01*
X009118Y018231D01*
X009108Y018217D01*
X009095Y018204D01*
X009081Y018194D01*
X009065Y018187D01*
X009048Y018183D01*
X009031Y018181D01*
X008331Y018681D02*
X008281Y018681D01*
X008081Y018681D02*
X008031Y018681D01*
X006506Y019456D02*
X006506Y015656D01*
X006406Y015556D01*
X005256Y015556D01*
X005256Y019556D02*
X006406Y019556D01*
X006506Y019456D01*
X011549Y018207D02*
X011584Y018237D01*
X011617Y018268D01*
X011647Y018303D01*
X011674Y018339D01*
X011698Y018377D01*
X011720Y018417D01*
X011738Y018459D01*
X011754Y018502D01*
X011766Y018546D01*
X011774Y018590D01*
X011779Y018636D01*
X011781Y018681D01*
X011779Y018726D01*
X011774Y018772D01*
X011766Y018816D01*
X011754Y018860D01*
X011738Y018903D01*
X011720Y018945D01*
X011698Y018985D01*
X011674Y019023D01*
X011647Y019059D01*
X011617Y019094D01*
X011584Y019125D01*
X011549Y019155D01*
X010581Y018681D02*
X010583Y018635D01*
X010588Y018589D01*
X010597Y018543D01*
X010609Y018498D01*
X010625Y018455D01*
X010644Y018413D01*
X010667Y018372D01*
X010692Y018333D01*
X010720Y018297D01*
X010751Y018262D01*
X010785Y018230D01*
X010821Y018201D01*
X010581Y018681D02*
X010583Y018728D01*
X010589Y018776D01*
X010598Y018822D01*
X010611Y018868D01*
X010627Y018912D01*
X010647Y018956D01*
X010671Y018997D01*
X010697Y019036D01*
X010727Y019073D01*
X010760Y019108D01*
X010795Y019140D01*
X010832Y019169D01*
X005531Y003681D02*
X003831Y003681D01*
X003814Y003679D01*
X003797Y003675D01*
X003781Y003668D01*
X003767Y003658D01*
X003754Y003645D01*
X003744Y003631D01*
X003737Y003615D01*
X003733Y003598D01*
X003731Y003581D01*
X003731Y002781D01*
X003733Y002764D01*
X003737Y002747D01*
X003744Y002731D01*
X003754Y002717D01*
X003767Y002704D01*
X003781Y002694D01*
X003797Y002687D01*
X003814Y002683D01*
X003831Y002681D01*
X005531Y002681D01*
X005548Y002683D01*
X005565Y002687D01*
X005581Y002694D01*
X005595Y002704D01*
X005608Y002717D01*
X005618Y002731D01*
X005625Y002747D01*
X005629Y002764D01*
X005631Y002781D01*
X005631Y003581D01*
X005629Y003598D01*
X005625Y003615D01*
X005618Y003631D01*
X005608Y003645D01*
X005595Y003658D01*
X005581Y003668D01*
X005565Y003675D01*
X005548Y003679D01*
X005531Y003681D01*
X004831Y003181D02*
X004781Y003181D01*
X004581Y003181D02*
X004531Y003181D01*
D15*
X015181Y002811D03*
X016681Y004811D03*
X015181Y006551D03*
X016681Y008551D03*
X017681Y013811D03*
X019181Y013811D03*
X019181Y017551D03*
X017681Y017551D03*
D16*
X016681Y018681D02*
X016681Y019681D01*
X019681Y019681D01*
X019681Y018681D01*
X016681Y018681D01*
X016181Y018681D02*
X016181Y019681D01*
X013181Y019681D01*
X013181Y018681D01*
X016181Y018681D01*
D17*
X006947Y016806D02*
X006949Y016868D01*
X006955Y016931D01*
X006965Y016992D01*
X006979Y017053D01*
X006996Y017113D01*
X007017Y017172D01*
X007043Y017229D01*
X007071Y017284D01*
X007103Y017338D01*
X007139Y017389D01*
X007177Y017439D01*
X007219Y017485D01*
X007263Y017529D01*
X007311Y017570D01*
X007360Y017608D01*
X007412Y017642D01*
X007466Y017673D01*
X007522Y017701D01*
X007580Y017725D01*
X007639Y017746D01*
X007699Y017762D01*
X007760Y017775D01*
X007822Y017784D01*
X007884Y017789D01*
X007947Y017790D01*
X008009Y017787D01*
X008071Y017780D01*
X008133Y017769D01*
X008193Y017754D01*
X008253Y017736D01*
X008311Y017714D01*
X008368Y017688D01*
X008423Y017658D01*
X008476Y017625D01*
X008527Y017589D01*
X008575Y017550D01*
X008621Y017507D01*
X008664Y017462D01*
X008704Y017414D01*
X008741Y017364D01*
X008775Y017311D01*
X008806Y017257D01*
X008832Y017201D01*
X008856Y017143D01*
X008875Y017083D01*
X008891Y017023D01*
X008903Y016961D01*
X008911Y016900D01*
X008915Y016837D01*
X008915Y016775D01*
X008911Y016712D01*
X008903Y016651D01*
X008891Y016589D01*
X008875Y016529D01*
X008856Y016469D01*
X008832Y016411D01*
X008806Y016355D01*
X008775Y016301D01*
X008741Y016248D01*
X008704Y016198D01*
X008664Y016150D01*
X008621Y016105D01*
X008575Y016062D01*
X008527Y016023D01*
X008476Y015987D01*
X008423Y015954D01*
X008368Y015924D01*
X008311Y015898D01*
X008253Y015876D01*
X008193Y015858D01*
X008133Y015843D01*
X008071Y015832D01*
X008009Y015825D01*
X007947Y015822D01*
X007884Y015823D01*
X007822Y015828D01*
X007760Y015837D01*
X007699Y015850D01*
X007639Y015866D01*
X007580Y015887D01*
X007522Y015911D01*
X007466Y015939D01*
X007412Y015970D01*
X007360Y016004D01*
X007311Y016042D01*
X007263Y016083D01*
X007219Y016127D01*
X007177Y016173D01*
X007139Y016223D01*
X007103Y016274D01*
X007071Y016328D01*
X007043Y016383D01*
X007017Y016440D01*
X006996Y016499D01*
X006979Y016559D01*
X006965Y016620D01*
X006955Y016681D01*
X006949Y016744D01*
X006947Y016806D01*
X007381Y016506D02*
X007381Y016106D01*
X001181Y014431D02*
X001181Y013931D01*
X000931Y013681D01*
X001181Y013431D01*
X001181Y012931D01*
X000931Y012681D01*
X001181Y012431D01*
X001181Y011931D01*
X000931Y011681D01*
X001181Y011431D01*
X001181Y010931D01*
X000931Y010681D01*
X000431Y010681D01*
X000181Y010931D01*
X000181Y011431D01*
X000431Y011681D01*
X000181Y011931D01*
X000181Y012431D01*
X000431Y012681D01*
X000181Y012931D01*
X000181Y013431D01*
X000431Y013681D01*
X000181Y013931D01*
X000181Y014431D01*
X000431Y014681D01*
X000931Y014681D01*
X001181Y014431D01*
X000931Y009681D02*
X000431Y009681D01*
X000181Y009431D01*
X000181Y008931D01*
X000431Y008681D01*
X000181Y008431D01*
X000181Y007931D01*
X000431Y007681D01*
X000181Y007431D01*
X000181Y006931D01*
X000431Y006681D01*
X000181Y006431D01*
X000181Y005931D01*
X000431Y005681D01*
X000931Y005681D01*
X001181Y005931D01*
X001181Y006431D01*
X000931Y006681D01*
X001181Y006931D01*
X001181Y007431D01*
X000931Y007681D01*
X001181Y007931D01*
X001181Y008431D01*
X000931Y008681D01*
X001181Y008931D01*
X001181Y009431D01*
X000931Y009681D01*
X005681Y007431D02*
X005681Y006931D01*
X005931Y006681D01*
X005681Y006431D01*
X005681Y005931D01*
X005931Y005681D01*
X005681Y005431D01*
X005681Y004931D01*
X005931Y004681D01*
X006431Y004681D01*
X006681Y004931D01*
X006681Y005431D01*
X006431Y005681D01*
X006681Y005931D01*
X006681Y006431D01*
X006431Y006681D01*
X006681Y006931D01*
X006681Y007431D01*
X006431Y007681D01*
X005931Y007681D01*
X005681Y007431D01*
X001181Y004431D02*
X001181Y003931D01*
X000931Y003681D01*
X001181Y003431D01*
X001181Y002931D01*
X000931Y002681D01*
X001181Y002431D01*
X001181Y001931D01*
X000931Y001681D01*
X001181Y001431D01*
X001181Y000931D01*
X000931Y000681D01*
X000431Y000681D01*
X000181Y000931D01*
X000181Y001431D01*
X000431Y001681D01*
X000181Y001931D01*
X000181Y002431D01*
X000431Y002681D01*
X000181Y002931D01*
X000181Y003431D01*
X000431Y003681D01*
X000181Y003931D01*
X000181Y004431D01*
X000431Y004681D01*
X000931Y004681D01*
X001181Y004431D01*
X002931Y001681D02*
X003431Y001681D01*
X003681Y001431D01*
X003931Y001681D01*
X004431Y001681D01*
X004681Y001431D01*
X004931Y001681D01*
X005431Y001681D01*
X005681Y001431D01*
X005931Y001681D01*
X006431Y001681D01*
X006681Y001431D01*
X006931Y001681D01*
X007431Y001681D01*
X007681Y001431D01*
X007681Y000931D01*
X007431Y000681D01*
X006931Y000681D01*
X006681Y000931D01*
X006431Y000681D01*
X005931Y000681D01*
X005681Y000931D01*
X005431Y000681D01*
X004931Y000681D01*
X004681Y000931D01*
X004431Y000681D01*
X003931Y000681D01*
X003681Y000931D01*
X003431Y000681D01*
X002931Y000681D01*
X002681Y000931D01*
X002681Y001431D01*
X002931Y001681D01*
X013131Y004981D02*
X013131Y005381D01*
X012697Y005681D02*
X012699Y005743D01*
X012705Y005806D01*
X012715Y005867D01*
X012729Y005928D01*
X012746Y005988D01*
X012767Y006047D01*
X012793Y006104D01*
X012821Y006159D01*
X012853Y006213D01*
X012889Y006264D01*
X012927Y006314D01*
X012969Y006360D01*
X013013Y006404D01*
X013061Y006445D01*
X013110Y006483D01*
X013162Y006517D01*
X013216Y006548D01*
X013272Y006576D01*
X013330Y006600D01*
X013389Y006621D01*
X013449Y006637D01*
X013510Y006650D01*
X013572Y006659D01*
X013634Y006664D01*
X013697Y006665D01*
X013759Y006662D01*
X013821Y006655D01*
X013883Y006644D01*
X013943Y006629D01*
X014003Y006611D01*
X014061Y006589D01*
X014118Y006563D01*
X014173Y006533D01*
X014226Y006500D01*
X014277Y006464D01*
X014325Y006425D01*
X014371Y006382D01*
X014414Y006337D01*
X014454Y006289D01*
X014491Y006239D01*
X014525Y006186D01*
X014556Y006132D01*
X014582Y006076D01*
X014606Y006018D01*
X014625Y005958D01*
X014641Y005898D01*
X014653Y005836D01*
X014661Y005775D01*
X014665Y005712D01*
X014665Y005650D01*
X014661Y005587D01*
X014653Y005526D01*
X014641Y005464D01*
X014625Y005404D01*
X014606Y005344D01*
X014582Y005286D01*
X014556Y005230D01*
X014525Y005176D01*
X014491Y005123D01*
X014454Y005073D01*
X014414Y005025D01*
X014371Y004980D01*
X014325Y004937D01*
X014277Y004898D01*
X014226Y004862D01*
X014173Y004829D01*
X014118Y004799D01*
X014061Y004773D01*
X014003Y004751D01*
X013943Y004733D01*
X013883Y004718D01*
X013821Y004707D01*
X013759Y004700D01*
X013697Y004697D01*
X013634Y004698D01*
X013572Y004703D01*
X013510Y004712D01*
X013449Y004725D01*
X013389Y004741D01*
X013330Y004762D01*
X013272Y004786D01*
X013216Y004814D01*
X013162Y004845D01*
X013110Y004879D01*
X013061Y004917D01*
X013013Y004958D01*
X012969Y005002D01*
X012927Y005048D01*
X012889Y005098D01*
X012853Y005149D01*
X012821Y005203D01*
X012793Y005258D01*
X012767Y005315D01*
X012746Y005374D01*
X012729Y005434D01*
X012715Y005495D01*
X012705Y005556D01*
X012699Y005619D01*
X012697Y005681D01*
X018681Y005931D02*
X018681Y006431D01*
X018931Y006681D01*
X018681Y006931D01*
X018681Y007431D01*
X018931Y007681D01*
X018681Y007931D01*
X018681Y008431D01*
X018931Y008681D01*
X018681Y008931D01*
X018681Y009431D01*
X018931Y009681D01*
X019431Y009681D01*
X019681Y009431D01*
X019681Y008931D01*
X019431Y008681D01*
X019681Y008431D01*
X019681Y007931D01*
X019431Y007681D01*
X019681Y007431D01*
X019681Y006931D01*
X019431Y006681D01*
X019681Y006431D01*
X019681Y005931D01*
X019431Y005681D01*
X018931Y005681D01*
X018681Y005931D01*
X018931Y004681D02*
X018681Y004431D01*
X018681Y003931D01*
X018931Y003681D01*
X018681Y003431D01*
X018681Y002931D01*
X018931Y002681D01*
X018681Y002431D01*
X018681Y001931D01*
X018931Y001681D01*
X018681Y001431D01*
X018681Y000931D01*
X018931Y000681D01*
X019431Y000681D01*
X019681Y000931D01*
X019681Y001431D01*
X019431Y001681D01*
X019681Y001931D01*
X019681Y002431D01*
X019431Y002681D01*
X019681Y002931D01*
X019681Y003431D01*
X019431Y003681D01*
X019681Y003931D01*
X019681Y004431D01*
X019431Y004681D01*
X018931Y004681D01*
D18*
X016284Y003376D02*
X016236Y003346D01*
X016191Y003313D01*
X016148Y003277D01*
X016107Y003239D01*
X016070Y003197D01*
X016035Y003153D01*
X016004Y003107D01*
X015975Y003058D01*
X015951Y003008D01*
X015930Y002956D01*
X015912Y002902D01*
X015899Y002848D01*
X015889Y002793D01*
X015883Y002737D01*
X015881Y002681D01*
X015883Y002628D01*
X015888Y002574D01*
X015897Y002522D01*
X015909Y002470D01*
X015925Y002419D01*
X015944Y002369D01*
X015967Y002320D01*
X015993Y002273D01*
X016021Y002228D01*
X016053Y002185D01*
X016087Y002145D01*
X016125Y002106D01*
X016164Y002070D01*
X017481Y002681D02*
X017479Y002735D01*
X017474Y002789D01*
X017465Y002842D01*
X017452Y002895D01*
X017436Y002946D01*
X017416Y002996D01*
X017393Y003045D01*
X017367Y003093D01*
X017338Y003138D01*
X017305Y003181D01*
X017270Y003222D01*
X017232Y003261D01*
X017192Y003297D01*
X017149Y003330D01*
X017104Y003360D01*
X017057Y003387D01*
X017481Y002681D02*
X017479Y002627D01*
X017474Y002574D01*
X017465Y002520D01*
X017452Y002468D01*
X017436Y002417D01*
X017416Y002366D01*
X017394Y002317D01*
X017368Y002270D01*
X017338Y002225D01*
X017306Y002182D01*
X017271Y002141D01*
X017233Y002102D01*
X017193Y002066D01*
X015578Y007986D02*
X015626Y008016D01*
X015671Y008049D01*
X015714Y008085D01*
X015755Y008123D01*
X015792Y008165D01*
X015827Y008209D01*
X015858Y008255D01*
X015887Y008304D01*
X015911Y008354D01*
X015932Y008406D01*
X015950Y008460D01*
X015963Y008514D01*
X015973Y008569D01*
X015979Y008625D01*
X015981Y008681D01*
X015979Y008734D01*
X015974Y008788D01*
X015965Y008840D01*
X015953Y008892D01*
X015937Y008943D01*
X015918Y008993D01*
X015895Y009042D01*
X015869Y009089D01*
X015841Y009134D01*
X015809Y009177D01*
X015775Y009217D01*
X015737Y009256D01*
X015698Y009292D01*
X014381Y008681D02*
X014383Y008627D01*
X014388Y008573D01*
X014397Y008520D01*
X014410Y008467D01*
X014426Y008416D01*
X014446Y008366D01*
X014469Y008317D01*
X014495Y008269D01*
X014524Y008224D01*
X014557Y008181D01*
X014592Y008140D01*
X014630Y008101D01*
X014670Y008065D01*
X014713Y008032D01*
X014758Y008002D01*
X014805Y007975D01*
X014381Y008681D02*
X014383Y008735D01*
X014388Y008788D01*
X014397Y008842D01*
X014410Y008894D01*
X014426Y008945D01*
X014446Y008996D01*
X014468Y009045D01*
X014494Y009092D01*
X014524Y009137D01*
X014556Y009180D01*
X014591Y009221D01*
X014629Y009260D01*
X014669Y009296D01*
X009981Y016706D02*
X009681Y016706D01*
X009381Y016706D01*
X009381Y016906D02*
X009681Y016906D01*
X009981Y016906D01*
X008281Y018381D02*
X008281Y018681D01*
X008281Y018981D01*
X008081Y018981D02*
X008081Y018681D01*
X008081Y018381D01*
X011578Y017986D02*
X011626Y018016D01*
X011671Y018049D01*
X011714Y018085D01*
X011755Y018123D01*
X011792Y018165D01*
X011827Y018209D01*
X011858Y018255D01*
X011887Y018304D01*
X011911Y018354D01*
X011932Y018406D01*
X011950Y018460D01*
X011963Y018514D01*
X011973Y018569D01*
X011979Y018625D01*
X011981Y018681D01*
X011979Y018734D01*
X011974Y018788D01*
X011965Y018840D01*
X011953Y018892D01*
X011937Y018943D01*
X011918Y018993D01*
X011895Y019042D01*
X011869Y019089D01*
X011841Y019134D01*
X011809Y019177D01*
X011775Y019217D01*
X011737Y019256D01*
X011698Y019292D01*
X010381Y018681D02*
X010383Y018627D01*
X010388Y018573D01*
X010397Y018520D01*
X010410Y018467D01*
X010426Y018416D01*
X010446Y018366D01*
X010469Y018317D01*
X010495Y018269D01*
X010524Y018224D01*
X010557Y018181D01*
X010592Y018140D01*
X010630Y018101D01*
X010670Y018065D01*
X010713Y018032D01*
X010758Y018002D01*
X010805Y017975D01*
X010381Y018681D02*
X010383Y018735D01*
X010388Y018788D01*
X010397Y018842D01*
X010410Y018894D01*
X010426Y018945D01*
X010446Y018996D01*
X010468Y019045D01*
X010494Y019092D01*
X010524Y019137D01*
X010556Y019180D01*
X010591Y019221D01*
X010629Y019260D01*
X010669Y019296D01*
X004781Y003481D02*
X004781Y003181D01*
X004781Y002881D01*
X004581Y002881D02*
X004581Y003181D01*
X004581Y003481D01*
D19*
X006266Y015736D03*
D20*
X005056Y015831D03*
X005056Y019281D03*
D21*
X004956Y018556D03*
X004956Y017556D03*
X004956Y016556D03*
D22*
X005056Y017056D03*
X005056Y018056D03*
D23*
X011311Y016181D03*
X015051Y016181D03*
M02*
